<svg width="95px" height="30px" viewBox="0 0 95 24" version="1.1" xmlns="http://www.w3.org/2000/svg" xmlns:xlink="http://www.w3.org/1999/xlink">
    <g id="Page-1" stroke="none" stroke-width="1" fill="none" fill-rule="evenodd">
        <g id="Artboard" transform="translate(-30.000000, -15.000000)" fill="#ffffff">
            <g id="logo" transform="translate(30.000000, 15.000000)">
                <path d="M10.6297997,17.2615563 L10.6297997,20.4236831 C9.70811699,20.6475845 8.8147516,20.7593873 7.95092147,20.7593873 C6.1453125,20.7593873 4.74345353,20.3257817 3.74473558,19.4582746 C2.74632212,18.5907676 2.24696314,17.2896549 2.24696314,15.5546408 L2.24696314,9.76219014 L0.00015224359,9.76219014 L0.00015224359,6.57226056 L2.24696314,6.57226056 L2.24696314,3.0741338 L6.1358734,3.0741338 L6.1358734,6.57226056 L10.1688061,6.57226056 L10.1688061,9.76219014 L6.1358734,9.76219014 L6.1358734,15.2189366 C6.1358734,16.0024437 6.3471875,16.5573169 6.76981571,16.8838521 C7.19213942,17.2103873 7.86444712,17.3733592 8.78612981,17.3733592 C9.0166266,17.3733592 9.63108173,17.3363873 10.6297997,17.2615563" id="Fill-1"></path>
                <path d="M21.8083766,6.57220141 L21.8083766,9.90203239 L20.7712933,9.90203239 C19.5996266,9.90203239 18.6682003,10.2052014 17.9767099,10.8115394 C17.285524,11.4178775 16.9396266,12.3179197 16.9396266,13.511962 L16.9396266,20.4236239 L13.0510208,20.4236239 L13.0510208,6.57220141 L16.6229599,6.57220141 L16.6229599,8.25131408 C17.6024952,7.02000423 18.9081362,6.40420141 20.5407965,6.40420141 C21.0209728,6.40420141 21.4432965,6.46039859 21.8083766,6.57220141" id="Fill-3"></path>
                <polygon id="Fill-5" points="24.0867628 20.4235648 27.9756731 20.4235648 27.9756731 6.57214225 24.0867628 6.57214225"></polygon>
                <path d="M27.6087356,0.602907042 C28.0484151,1.00486479 28.2682548,1.50738592 28.2682548,2.11017465 C28.2682548,2.6964 28.0484151,3.19034366 27.6087356,3.59230141 C27.1690561,3.99425915 26.6386394,4.19538592 26.0180946,4.19538592 C25.3972452,4.19538592 24.8713958,3.99425915 24.4405465,3.59230141 C24.0093926,3.19034366 23.7941202,2.6964 23.7941202,2.11017465 C23.7941202,1.50738592 24.0093926,1.00486479 24.4405465,0.602907042 C24.8713958,0.200949296 25.3972452,0.000118309859 26.0180946,0.000118309859 C26.6386394,0.000118309859 27.1690561,0.200949296 27.6087356,0.602907042" id="Fill-7"></path>
                <path d="M42.3189679,7.78934366 C43.279016,8.80592113 43.7594968,10.154062 43.7594968,11.8328789 L43.7594968,20.4236535 L39.8992083,20.4236535 L39.8992083,12.3365831 C39.8992083,11.5344423 39.6544006,10.8861042 39.1647853,10.3918648 C38.6748654,9.89732958 38.0363558,9.65006197 37.2489519,9.65006197 C36.4615481,9.65006197 35.8135994,9.89732958 35.3044968,10.3918648 C34.7956987,10.8861042 34.5411474,11.5344423 34.5411474,12.3365831 L34.5411474,20.4236535 L30.6522372,20.4236535 L30.6522372,6.57223099 L34.2241763,6.57223099 L34.2241763,7.83134366 C35.299625,6.78666761 36.6920449,6.26432958 38.4011314,6.26432958 C40.0526699,6.26432958 41.3589199,6.7727662 42.3189679,7.78934366" id="Fill-8"></path>
                <path d="M50.5560769,10.0700028 C49.9416218,10.573707 49.5192981,11.2545803 49.2888013,12.1126225 L55.7990417,12.1126225 C55.779859,11.2545803 55.4726314,10.573707 54.877359,10.0700028 C54.2820865,9.56629859 53.5619744,9.31429859 52.7167179,9.31429859 C51.8909487,9.31429859 51.1708365,9.56629859 50.5560769,10.0700028 M59.3134327,14.7710451 L49.2888013,14.7710451 C49.5384808,15.6480169 50.0137853,16.3241577 50.7147147,16.7997634 C51.4156442,17.2756648 52.2849551,17.5134676 53.3214295,17.5134676 C54.7238974,17.5134676 56.0487212,17.047031 57.2971186,16.1144535 L58.9102917,18.6888761 C57.2200833,20.0692563 55.3191699,20.7595944 53.2066378,20.7595944 C50.9595224,20.7595944 49.0966699,20.0645239 47.6177756,18.6746789 C46.1391859,17.2848338 45.399891,15.5640169 45.399891,13.5119324 C45.399891,11.4784817 46.1151314,9.76210141 47.5456122,8.36308732 C48.9767019,6.96377746 50.7482083,6.26427042 52.8607404,6.26427042 C54.8389936,6.26427042 56.4521667,6.88007324 57.7002596,8.11108732 C58.9486571,9.34239718 59.5728558,10.8721437 59.5728558,12.7003268 C59.5728558,13.372031 59.4863814,14.0620732 59.3134327,14.7710451" id="Fill-9"></path>
                <path d="M71.0957772,17.2615563 L71.0957772,20.4236831 C70.1740946,20.6475845 69.2810337,20.7593873 68.416899,20.7593873 C66.6112901,20.7593873 65.2094311,20.3257817 64.2110176,19.4582746 C63.2122997,18.5907676 62.7129407,17.2896549 62.7129407,15.5546408 L62.7129407,9.76219014 L60.4661298,9.76219014 L60.4661298,6.57226056 L62.7129407,6.57226056 L62.7129407,3.0741338 L66.601851,3.0741338 L66.601851,6.57226056 L70.6347837,6.57226056 L70.6347837,9.76219014 L66.601851,9.76219014 L66.601851,15.2189366 C66.601851,16.0024437 66.8131651,16.5573169 67.2357933,16.8838521 C67.658117,17.2103873 68.3304247,17.3733592 69.2521074,17.3733592 C69.4826042,17.3733592 70.0973638,17.3363873 71.0957772,17.2615563" id="Fill-10"></path>
                <polygon id="Fill-11" points="73.5169071 20.4235648 77.4058173 20.4235648 77.4058173 6.57214225 73.5169071 6.57214225"></polygon>
                <path d="M77.0390625,0.602907042 C77.478742,1.00486479 77.6985817,1.50738592 77.6985817,2.11017465 C77.6985817,2.6964 77.478742,3.19034366 77.0390625,3.59230141 C76.599383,3.99425915 76.0689663,4.19538592 75.4484215,4.19538592 C74.8275721,4.19538592 74.3017228,3.99425915 73.8708734,3.59230141 C73.4397196,3.19034366 73.2244471,2.6964 73.2244471,2.11017465 C73.2244471,1.50738592 73.4397196,1.00486479 73.8708734,0.602907042 C74.3017228,0.200949296 74.8275721,0.000118309859 75.4484215,0.000118309859 C76.0689663,0.000118309859 76.599383,0.200949296 77.0390625,0.602907042" id="Fill-12"></path>
                <polygon id="Fill-13" opacity="0.600000024" points="91.2085865 12.2132451 94.6964872 8.82514648 91.9564071 6.1637662 88.4688109 9.55156901"></polygon>
                <polygon id="Fill-14" points="94.6963958 18.298838 82.2038958 6.16379577 79.4638157 8.82517606 84.3401779 13.562007 79.4638157 18.298838 82.2038958 20.9605141 87.080258 16.2236831 91.9563157 20.9605141"></polygon>
            </g>
        </g>
    </g>
</svg>